# XSI Wavefront OBJ Export v3.0
# File Created: Mon Mar 06 19:42:13 2017
# XSI Version: 12.0.921.0
mtllib Single Shard.mtl

o cube14
# Hierarchy (from self to top father)
g cube14

#begin 72 vertices
v 2.516232 -10.690722 9.704767
v -10.835579 -10.915324 -1.434414
v 0.099194 66.541037 0.361329
v -9.102704 34.976110 -1.127632
v 10.090919 -10.980709 -2.190181
v -0.417180 -11.102574 -8.561211
v 8.597992 25.117140 -1.195307
v -0.349698 18.276947 -9.234483
v 4.729045 25.813842 -5.922827
v 4.247470 -11.024106 -4.669575
v -6.362308 -10.708449 8.041310
v -4.438898 44.732757 4.617970
v 4.267375 -2.358279 -4.868164
v -0.397275 -2.436747 -8.759800
v -9.011727 12.407772 1.266468
v -4.347077 12.486240 5.158104
v 1.179415 11.430587 8.039574
v 8.962984 11.199014 -1.285414
v 5.501028 18.561851 3.784270
v 0.381604 66.524264 -1.551730
v -5.323231 34.863665 -5.655573
v -4.401372 -2.317619 -3.962753
v -4.421276 -10.983446 -3.764163
v 0.138681 -41.473554 0.820650
v 4.296628 -41.403610 4.289553
v 4.958888 11.318142 3.511633
v 1.196033 18.665455 7.873777
v -1.621026 66.715707 -1.077734
v 1.612130 66.404458 -1.450490
v 0.120443 66.555940 -2.701833
v 0.838787 66.482992 -2.099230
v -1.285226 66.674491 0.444387
v 1.679528 66.392458 -0.462931
v -0.565273 66.620399 -2.342052
v 8.912120 -10.945638 -0.777939
v 10.530840 7.722644 -3.027854
v 6.767405 6.818520 -8.116574
v 7.123187 -11.109663 -8.114785
v 7.143092 -2.443836 -8.313374
v 10.110823 -2.314882 -2.388770
v 0.927705 -41.303379 8.325640
v 2.536137 -2.024895 9.506178
v 10.319706 -2.256468 0.181190
v 6.295705 -10.803167 5.176826
v 6.315610 -2.137340 4.978237
v 10.299802 -10.922295 0.379779
v 2.164647 -41.282571 9.357600
v -8.252577 -41.417551 2.423403
v 8.916525 -41.541059 -1.245245
v -0.450119 -41.649686 -6.924214
v 3.707828 -41.579741 -3.455312
v -4.094630 -41.347606 5.892305
v -4.019266 -41.543498 -2.648252
v 7.865775 -41.509797 0.013590
v 6.271167 -41.656005 -6.526282
v 1.128551 -10.714065 8.547049
v 5.533571 -41.382802 5.321512
v 9.102717 -41.488989 1.045550
v -11.026958 -10.786917 4.149674
v -4.400487 -10.766816 5.690980
v -11.007053 -2.121090 3.951085
v -6.342403 -2.042622 7.842720
v -10.001292 -41.365524 4.518425
v -5.843345 -41.295580 7.987327
v -9.065137 -10.845284 1.799344
v -11.402239 19.960837 -2.674171
v -10.782169 12.337733 -1.967290
v -7.622766 19.848392 -7.202112
v -7.036201 -2.361942 -6.160944
v -7.056106 -11.027769 -5.962355
v -9.736807 -41.482776 -0.571574
v -6.367884 -41.583006 -4.607662
#end 72 vertices

#begin 280 normals
vn -0.550610 0.009575 0.834708
vn 0.305638 0.076503 0.949070
vn -0.983900 0.158579 0.082428
vn -0.640645 0.003420 0.767830
vn -0.002296 -0.999735 0.022910
vn -0.002296 -0.999735 0.022910
vn -0.002296 -0.999735 0.022910
vn -0.002296 -0.999735 0.022910
vn 0.767685 -0.001589 0.640826
vn 0.767685 -0.001589 0.640826
vn 0.799594 0.041515 0.599104
vn 0.305638 0.076503 0.949070
vn -0.767733 -0.029281 -0.640100
vn -0.787457 0.057253 -0.613704
vn 0.020774 0.056151 -0.998206
vn -0.767782 -0.023193 -0.640292
vn 0.096367 0.995331 0.005499
vn 0.096452 0.995322 0.005511
vn 0.096454 0.995322 0.005511
vn 0.096475 0.995320 0.005606
vn 0.893954 -0.030231 -0.447138
vn 0.640620 -0.030425 -0.767255
vn 0.020774 0.056151 -0.998206
vn 0.820432 0.069574 -0.567495
vn 0.096453 0.995322 0.005511
vn 0.820432 0.069574 -0.567495
vn -0.002296 -0.999735 0.022910
vn 0.893954 -0.030231 -0.447138
vn -0.453605 0.010173 0.891145
vn -0.002296 -0.999735 0.022910
vn -0.554832 0.118234 0.823518
vn 0.096421 0.995325 0.005552
vn -0.554832 0.118234 0.823518
vn -0.640645 0.003420 0.767830
vn -0.002296 -0.999735 0.022910
vn -0.002296 -0.999735 0.022910
vn 0.096453 0.995322 0.005511
vn 0.096421 0.995325 0.005552
vn 0.640620 -0.030425 -0.767255
vn 0.660241 0.094282 -0.745113
vn 0.874704 -0.013112 -0.484479
vn 0.625380 -0.025100 -0.779916
vn -0.743240 -0.024915 -0.668561
vn 0.625380 -0.025100 -0.779916
vn -0.774750 0.078623 0.627361
vn -0.789085 -0.039969 -0.612982
vn -0.577305 0.074701 0.813105
vn -0.577305 0.074701 0.813105
vn -0.520539 0.018615 0.853635
vn 0.766248 0.079449 0.637614
vn 0.766248 0.079449 0.637614
vn 0.874704 -0.013112 -0.484479
vn -0.520539 0.018615 0.853635
vn -0.577305 0.074701 0.813105
vn 0.776948 0.038861 0.628364
vn 0.748245 0.056487 0.661013
vn -0.789085 -0.039969 -0.612982
vn -0.743240 -0.024915 -0.668561
vn 0.874704 -0.013112 -0.484479
vn 0.874704 -0.013112 -0.484479
vn -0.637026 0.122176 0.761098
vn -0.637026 0.122176 0.761098
vn 0.625380 -0.025100 -0.779916
vn 0.625380 -0.025100 -0.779916
vn 0.757353 0.051413 0.650979
vn 0.096410 0.995327 0.005505
vn 0.096437 0.995324 0.005532
vn 0.096437 0.995324 0.005532
vn -0.787457 0.057253 -0.613704
vn 0.096465 0.995321 0.005558
vn -0.789085 -0.039969 -0.612982
vn -0.789085 -0.039969 -0.612982
vn -0.002296 -0.999735 0.022910
vn -0.767733 -0.029281 -0.640100
vn -0.002296 -0.999735 0.022910
vn -0.002296 -0.999735 0.022910
vn -0.002296 -0.999735 0.022910
vn 0.767685 -0.001589 0.640826
vn 0.766248 0.079449 0.637614
vn 0.770025 0.060625 0.635126
vn -0.002296 -0.999735 0.022910
vn -0.002296 -0.999735 0.022910
vn 0.767685 -0.001589 0.640826
vn 0.766248 0.079449 0.637614
vn -0.743240 -0.024915 -0.668561
vn -0.767782 -0.023193 -0.640292
vn 0.096410 0.995327 0.005505
vn 0.096437 0.995324 0.005532
vn -0.002296 -0.999735 0.022910
vn -0.002296 -0.999735 0.022910
vn 0.096465 0.995321 0.005558
vn 0.096437 0.995324 0.005532
vn 0.757353 0.051413 0.650979
vn 0.770025 0.060625 0.635126
vn -0.644684 0.118337 -0.755234
vn -0.743240 -0.024915 -0.668561
vn 0.305638 0.076503 0.949070
vn 0.757353 0.051413 0.650979
vn 0.736583 0.128051 0.664115
vn 0.410313 0.147815 0.899886
vn 0.757353 0.051413 0.650979
vn 0.799594 0.041515 0.599104
vn 0.820570 0.127657 0.557107
vn 0.736583 0.128051 0.664115
vn 0.769353 0.140476 -0.623187
vn 0.660241 0.094282 -0.745113
vn 0.614600 0.127110 -0.778530
vn 0.759695 0.128571 -0.637442
vn 0.660241 0.094282 -0.745113
vn 0.020774 0.056151 -0.998206
vn 0.094771 0.136671 -0.986073
vn 0.614600 0.127110 -0.778530
vn 0.020774 0.056151 -0.998206
vn -0.644684 0.118337 -0.755234
vn -0.532842 0.163817 -0.830207
vn 0.094771 0.136671 -0.986073
vn -0.644684 0.118337 -0.755234
vn -0.983900 0.158579 0.082428
vn -0.960960 0.222978 -0.163818
vn -0.532842 0.163817 -0.830207
vn -0.983900 0.158579 0.082428
vn -0.554832 0.118234 0.823518
vn -0.913250 0.207849 0.350391
vn -0.960960 0.222978 -0.163818
vn -0.554832 0.118234 0.823518
vn 0.305638 0.076503 0.949070
vn 0.410313 0.147815 0.899886
vn 0.151850 0.158816 0.975561
vn -0.002296 -0.999735 0.022910
vn -0.002296 -0.999735 0.022910
vn -0.002296 -0.999735 0.022910
vn -0.002296 -0.999735 0.022910
vn -0.767797 -0.012406 -0.640573
vn -0.771281 -0.012812 -0.636366
vn -0.771281 -0.012812 -0.636366
vn -0.767797 -0.012406 -0.640573
vn -0.771281 -0.012812 -0.636366
vn -0.774741 -0.012707 -0.632151
vn -0.774741 -0.012707 -0.632151
vn -0.771281 -0.012812 -0.636366
vn 0.660241 0.094282 -0.745113
vn 0.769353 0.140476 -0.623187
vn 0.820432 0.069574 -0.567495
vn 0.820432 0.069574 -0.567495
vn 0.799594 0.041515 0.599104
vn 0.776948 0.038861 0.628364
vn 0.762081 0.013084 0.647349
vn 0.756304 0.013252 0.654086
vn 0.776948 0.038861 0.628364
vn 0.767724 0.001619 0.640779
vn 0.767724 0.001619 0.640779
vn 0.762081 0.013084 0.647349
vn -0.002296 -0.999735 0.022910
vn -0.002296 -0.999735 0.022910
vn -0.002296 -0.999735 0.022910
vn -0.002296 -0.999735 0.022910
vn -0.002296 -0.999735 0.022910
vn -0.002296 -0.999735 0.022910
vn -0.002296 -0.999735 0.022910
vn -0.002296 -0.999735 0.022910
vn 0.640620 -0.030425 -0.767255
vn 0.640687 -0.019061 -0.767565
vn 0.640687 -0.019061 -0.767565
vn 0.640620 -0.030425 -0.767255
vn 0.776948 0.038861 0.628364
vn 0.770025 0.060625 0.635126
vn 0.766248 0.079449 0.637614
vn 0.766248 0.079449 0.637614
vn 0.770025 0.060625 0.635126
vn 0.748245 0.056487 0.661013
vn 0.766248 0.079449 0.637614
vn 0.766248 0.079449 0.637614
vn -0.520539 0.018615 0.853635
vn -0.550610 0.009575 0.834708
vn -0.640677 0.008855 0.767759
vn -0.640687 0.019061 0.767565
vn -0.550610 0.009575 0.834708
vn -0.453605 0.010173 0.891145
vn -0.448135 -0.001063 0.893965
vn -0.548006 -0.001215 0.836473
vn -0.640645 0.003420 0.767830
vn -0.640645 0.003420 0.767830
vn -0.640445 -0.012221 0.767906
vn -0.640445 -0.012221 0.767906
vn -0.767733 -0.029281 -0.640100
vn -0.767733 -0.029281 -0.640100
vn -0.767462 -0.045638 -0.639468
vn -0.767462 -0.045638 -0.639468
vn -0.767782 -0.023193 -0.640292
vn -0.767782 -0.023193 -0.640292
vn -0.767684 -0.033467 -0.639955
vn -0.767684 -0.033467 -0.639955
vn 0.640620 -0.030425 -0.767255
vn 0.640620 -0.030425 -0.767255
vn 0.640469 -0.041785 -0.766846
vn 0.640469 -0.041785 -0.766846
vn -0.767797 -0.012406 -0.640573
vn -0.767797 -0.012406 -0.640573
vn -0.767796 -0.011896 -0.640584
vn -0.767796 -0.011896 -0.640584
vn 0.893954 -0.030231 -0.447138
vn 0.893954 -0.030231 -0.447138
vn 0.893482 -0.048142 -0.446512
vn 0.893482 -0.048142 -0.446512
vn 0.767724 0.001619 0.640779
vn 0.767724 0.001619 0.640779
vn 0.767551 -0.009679 0.640915
vn 0.767551 -0.009679 0.640915
vn 0.640620 -0.030425 -0.767255
vn 0.640620 -0.030425 -0.767255
vn 0.640469 -0.041785 -0.766846
vn 0.640469 -0.041785 -0.766846
vn 0.767685 -0.001589 0.640826
vn 0.767685 -0.001589 0.640826
vn 0.767409 -0.016093 0.640956
vn 0.767409 -0.016093 0.640956
vn 0.767685 -0.001589 0.640826
vn 0.767685 -0.001589 0.640826
vn 0.767409 -0.016093 0.640956
vn 0.767409 -0.016093 0.640956
vn -0.640677 0.008855 0.767759
vn -0.550610 0.009575 0.834708
vn -0.548006 -0.001215 0.836473
vn -0.640600 -0.001352 0.767873
vn 0.767798 0.012406 0.640573
vn 0.767799 0.012916 0.640561
vn 0.767799 0.012916 0.640561
vn 0.767798 0.012406 0.640573
vn -0.577305 0.074701 0.813105
vn -0.774750 0.078623 0.627361
vn -0.637026 0.122176 0.761098
vn -0.637026 0.122176 0.761098
vn -0.767799 -0.012916 -0.640561
vn -0.767782 -0.023193 -0.640292
vn -0.767782 -0.023193 -0.640292
vn -0.767799 -0.012916 -0.640561
vn -0.767782 -0.023193 -0.640292
vn -0.767684 -0.033467 -0.639955
vn -0.767684 -0.033467 -0.639955
vn -0.767782 -0.023193 -0.640292
vn -0.002296 -0.999735 0.022910
vn -0.002296 -0.999735 0.022910
vn -0.002296 -0.999735 0.022910
vn -0.002296 -0.999735 0.022910
vn 0.767796 0.011896 0.640584
vn 0.767798 0.012406 0.640573
vn 0.767798 0.012406 0.640573
vn 0.767796 0.011896 0.640584
vn -0.881746 -0.001709 0.471722
vn -0.774750 0.078623 0.627361
vn -0.849405 0.026308 0.527085
vn -0.881746 -0.001709 0.471722
vn -0.774750 0.078623 0.627361
vn -0.983900 0.158579 0.082428
vn -0.818929 0.039518 0.572533
vn -0.849405 0.026308 0.527085
vn -0.983900 0.158579 0.082428
vn -0.644684 0.118337 -0.755234
vn -0.787457 0.057253 -0.613704
vn -0.787457 0.057253 -0.613704
vn 0.640687 -0.019061 -0.767565
vn 0.640687 -0.019061 -0.767565
vn 0.640687 -0.019061 -0.767565
vn 0.640687 -0.019061 -0.767565
vn 0.640687 -0.019061 -0.767565
vn 0.640686 -0.019330 -0.767559
vn 0.640686 -0.019330 -0.767559
vn 0.640687 -0.019061 -0.767565
vn 0.640686 -0.019330 -0.767559
vn 0.640686 -0.019599 -0.767553
vn 0.640686 -0.019599 -0.767553
vn 0.640686 -0.019330 -0.767559
vn -0.002296 -0.999735 0.022910
vn -0.002296 -0.999735 0.022910
vn -0.002296 -0.999735 0.022910
vn -0.002296 -0.999735 0.022910
vn -0.886033 -0.016431 0.463331
vn -0.881746 -0.001709 0.471722
vn -0.881746 -0.001709 0.471722
vn -0.886033 -0.016431 0.463331
#end 280 vertex normals

#begin texture vertices
vt 0.225195 0.248358 0.000000
vt 1.507909 0.248358 0.000000
vt 0.890408 0.251547 0.000000
vt 0.855458 0.251547 0.000000
vt -0.039477 0.716005 0.000000
vt -0.390439 1.039477 0.000000
vt 1.390439 0.716005 0.000000
vt 1.052679 0.525214 0.000000
vt 1.058432 0.525214 0.000000
vt -0.371996 0.261832 0.000000
vt 0.642077 0.261832 0.000000
vt 0.470212 0.262331 0.000000
vt 0.050035 0.262331 0.000000
vt -0.451216 0.475005 0.000000
vt 0.401388 0.475005 0.000000
vt -0.005696 0.437886 0.000000
vt 0.606530 0.437886 0.000000
vt 0.595532 0.481926 0.000000
vt -0.234200 0.481926 0.000000
vt -0.165698 0.261217 0.000000
vt 0.442034 0.261217 0.000000
vt 0.054532 0.245659 0.000000
vt 1.250619 0.245659 0.000000
vt 1.341513 0.579896 0.000000
vt 0.482243 0.312999 0.000000
vt -0.182137 0.312999 0.000000
vt 0.510421 0.314113 0.000000
vt 0.033596 0.314113 0.000000
vt 1.063293 0.388596 0.000000
vt 0.988449 0.388596 0.000000
vt 0.039728 0.387482 0.000000
vt 1.279026 0.387482 0.000000
vt 0.114064 0.381013 0.000000
vt 1.485737 0.381013 0.000000
vt -0.423438 0.392427 0.000000
vt 0.483394 0.392427 0.000000
vt 0.263005 0.429661 0.000000
vt -0.346209 0.994134 0.000000
vt 0.879096 0.530757 0.000000
vt -0.022428 0.530757 0.000000
vt 0.001547 0.308241 0.000000
vt 0.700415 0.308241 0.000000
vt 0.017986 0.256460 0.000000
vt 0.660206 0.256460 0.000000
vt -0.138739 0.509161 0.000000
vt -0.331037 0.534278 0.000000
vt 0.293400 0.386555 0.000000
vt 1.499461 0.424244 0.000000
vt 0.080495 0.424244 0.000000
vt -0.311276 1.050839 0.000000
vt 1.050839 0.717631 0.000000
vt 1.311276 0.717631 0.000000
vt -0.378124 0.967231 0.000000
vt 0.032769 0.717678 0.000000
vt -0.378124 0.717678 0.000000
vt -0.309386 0.977013 0.000000
vt -0.309386 0.719092 0.000000
vt -0.342488 0.972302 0.000000
vt -0.342488 0.718411 0.000000
vt -0.359776 1.073728 0.000000
vt 1.359776 0.716061 0.000000
vt -0.406018 0.985622 0.000000
vt 0.014378 0.716675 0.000000
vt -0.302683 1.000424 0.000000
vt -0.302683 0.718799 0.000000
vt 1.000424 0.718799 0.000000
vt 0.586143 0.260103 0.000000
vt -0.381431 0.260103 0.000000
vt -0.406098 0.374179 0.000000
vt 0.572723 0.374179 0.000000
vt -0.178066 0.371975 0.000000
vt 0.406194 0.371975 0.000000
vt 0.305582 0.265434 0.000000
vt -0.142681 0.265434 0.000000
vt -0.159119 0.317216 0.000000
vt 0.345790 0.317216 0.000000
vt -0.388434 0.313614 0.000000
vt 0.601868 0.313614 0.000000
vt 1.358002 0.066744 0.000000
vt -0.358002 0.374423 0.000000
vt 0.184987 0.300140 0.000000
vt 1.524347 0.300140 0.000000
vt 0.554317 0.311554 0.000000
vt -0.462048 0.311554 0.000000
vt 0.404531 0.253900 0.000000
vt 0.364323 0.305682 0.000000
vt -0.445609 0.259772 0.000000
vt 0.594526 0.259772 0.000000
vt -0.415209 0.381894 0.000000
vt 0.381894 0.066448 0.000000
vt 1.415209 0.066448 0.000000
vt 0.019676 0.283174 0.000000
vt 0.716826 0.067462 0.000000
vt 0.980324 0.067462 0.000000
vt -0.294060 0.753492 0.000000
vt -0.294060 0.078458 0.000000
vt 0.753492 0.078458 0.000000
vt 0.082127 0.653401 0.000000
vt 0.346599 0.078903 0.000000
vt 0.082127 0.078903 0.000000
vt -0.110171 0.678517 0.000000
vt -0.110171 0.077910 0.000000
vt 0.321483 0.077910 0.000000
vt -0.172622 0.308291 0.000000
vt 1.172622 0.066469 0.000000
vt 0.308291 0.066469 0.000000
vt 0.053560 0.073670 0.000000
vt 0.515955 0.073670 0.000000
vt 0.053560 0.484045 0.000000
vt -0.302470 0.703634 0.000000
vt 0.703634 0.076918 0.000000
vt -0.302470 0.076918 0.000000
vt -0.089654 0.800148 0.000000
vt 0.199852 0.081669 0.000000
vt -0.089654 0.081669 0.000000
vt 1.443731 0.248690 0.000000
vt -0.388244 0.541750 0.000000
vt 0.541750 0.071388 0.000000
vt -0.359676 0.711106 0.000000
vt -0.359676 0.076622 0.000000
vt 0.711106 0.076622 0.000000
vt 1.034886 0.246773 0.000000
vt 0.973646 0.246773 0.000000
vt 1.234917 0.248536 0.000000
vt 0.147620 0.248536 0.000000
vt 1.051325 0.298555 0.000000
vt 1.013855 0.298555 0.000000
vt 1.267057 0.297441 0.000000
vt 0.014323 0.297441 0.000000
vt 0.994320 0.064898 0.000000
vt 0.799803 0.064898 0.000000
vt 0.005680 0.200197 0.000000
vt 1.186619 0.063905 0.000000
vt -0.186619 0.225314 0.000000
vt 0.225314 0.063905 0.000000
vt 0.880557 0.249650 0.000000
vt 1.019184 0.249650 0.000000
vt 1.002622 0.436261 0.000000
vt 0.919510 0.436261 0.000000
vt 0.963350 0.390493 0.000000
vt 0.934518 0.390493 0.000000
vt 0.823286 0.441803 0.000000
vt 0.110741 0.441803 0.000000
vt 0.716331 0.308871 0.000000
vt 0.123404 0.308871 0.000000
vt 0.676122 0.257089 0.000000
vt 0.139842 0.257089 0.000000
vt 0.689998 0.069291 0.000000
vt 0.135215 0.310002 0.000000
vt 0.864785 0.069291 0.000000
vt 0.530143 0.074231 0.000000
vt 0.162180 0.074231 0.000000
vt 0.162180 0.469857 0.000000
#end 153 texture vertices

#begin 70 faces
usemtl material5
f 56/116/1 17/34/49 16/32/47 60/124/29 
usemtl material5
f 41/80/5 52/104/30 24/45/75 25/46/77 
usemtl material5
f 1/1/9 44/85/78 45/86/79 42/81/50 
usemtl material5
f 2/4/13 67/140/46 69/144/71 70/146/74 
usemtl material5
f 3/6/17 33/62/66 20/38/67 32/60/32 
usemtl material5
f 5/10/21 38/74/28 39/75/41 40/77/52 
usemtl material5
f 4/8/3 15/29/45 16/32/48 12/24/33 
usemtl material5
f 48/92/6 53/109/73 24/45/76 52/104/35 
usemtl material5
f 30/56/19 34/64/70 20/38/68 31/58/37 
usemtl material5
f 6/13/22 14/28/44 13/26/42 10/20/39 
usemtl material5
f 27/48/2 12/24/31 16/32/54 17/34/53 
usemtl material5
f 7/15/11 19/37/65 26/47/80 18/36/55 
usemtl material5
f 66/138/14 68/142/69 69/144/72 67/140/57 
usemtl material5
f 37/71/26 36/69/24 40/77/60 39/75/59 
usemtl material5
f 59/122/4 11/23/34 62/128/62 61/126/61 
usemtl material5
f 8/16/23 9/19/40 13/26/64 14/28/63 
usemtl material5
f 51/101/27 54/110/8 25/46/82 24/45/81 
usemtl material5
f 46/88/10 43/83/51 45/86/84 44/85/83 
usemtl material5
f 14/27/43 6/12/16 23/44/86 22/42/85 
usemtl material5
f 29/53/18 31/58/25 20/38/88 33/62/87 
usemtl material5
f 50/98/7 51/101/36 24/45/90 53/109/89 
usemtl material5
f 28/50/20 32/60/38 20/38/92 34/64/91 
usemtl material5
f 27/49/12 17/33/56 26/47/94 19/37/93 
usemtl material5
f 8/17/15 14/27/58 22/42/96 21/39/95 
usemtl material5
f 27/49/97 19/37/98 33/63/99 3/5/100 
usemtl material5
f 19/37/101 7/15/102 29/54/103 33/63/104 
usemtl material5
f 7/14/105 9/19/106 31/59/107 29/55/108 
usemtl material5
f 9/19/109 8/16/110 30/57/111 31/59/112 
usemtl material5
f 8/16/113 21/40/114 34/65/115 30/57/116 
usemtl material5
f 21/39/117 4/9/118 28/51/119 34/66/120 
usemtl material5
f 4/8/121 12/24/122 32/61/123 28/52/124 
usemtl material5
f 12/24/125 27/48/126 3/7/127 32/61/128 
usemtl material5
f 54/110/129 51/101/130 55/113/131 49/95/132 
usemtl material5
f 10/21/133 13/25/134 39/76/135 38/73/136 
usemtl material5
f 13/25/137 9/18/138 37/72/139 39/76/140 
usemtl material5
f 9/19/141 7/14/142 36/69/143 37/71/144 
usemtl material5
f 7/15/145 18/36/146 40/78/147 36/70/148 
usemtl material5
f 18/36/149 35/67/150 5/11/151 40/78/152 
usemtl material5
f 41/80/153 25/46/154 57/117/155 47/89/156 
usemtl material5
f 25/46/157 54/110/158 58/119/159 57/117/160 
usemtl material5
f 35/68/161 18/35/162 43/84/163 46/87/164 
usemtl material5
f 18/36/165 26/47/166 45/86/167 43/83/168 
usemtl material5
f 26/47/169 17/33/170 42/81/171 45/86/172 
usemtl material5
f 17/34/173 56/116/174 1/2/175 42/82/176 
usemtl material5
f 56/116/177 60/124/178 52/105/179 41/79/180 
usemtl material5
f 11/23/181 59/122/182 63/130/183 64/133/184 
usemtl material5
f 2/4/185 70/146/186 72/151/187 71/148/188 
usemtl material5
f 23/44/189 6/12/190 50/99/191 53/108/192 
usemtl material5
f 6/13/193 10/20/194 51/102/195 50/100/196 
usemtl material5
f 10/21/197 38/73/198 55/114/199 51/103/200 
usemtl material5
f 38/74/201 5/10/202 49/96/203 55/115/204 
usemtl material5
f 5/11/205 35/67/206 54/111/207 49/97/208 
usemtl material5
f 35/68/209 46/87/210 58/120/211 54/112/212 
usemtl material5
f 46/88/213 44/85/214 57/118/215 58/121/216 
usemtl material5
f 44/85/217 1/1/218 47/90/219 57/118/220 
usemtl material5
f 1/2/221 56/116/222 41/79/223 47/91/224 
usemtl material5
f 60/125/225 16/31/226 62/129/227 11/22/228 
usemtl material5
f 16/32/229 15/29/230 61/126/231 62/128/232 
usemtl material5
f 15/30/233 65/136/234 59/123/235 61/127/236 
usemtl material5
f 65/136/237 48/93/238 63/131/239 59/123/240 
usemtl material5
f 48/92/241 52/104/242 64/134/243 63/132/244 
usemtl material5
f 52/106/245 60/125/246 11/22/247 64/135/248 
usemtl material5
f 65/137/249 15/29/250 67/141/251 2/3/252 
usemtl material5
f 15/29/253 4/8/254 66/139/255 67/141/256 
usemtl material5
f 4/9/257 21/39/258 68/142/259 66/138/260 
usemtl material5
f 21/40/261 22/41/262 69/145/263 68/143/264 
usemtl material5
f 22/41/265 23/43/266 70/147/267 69/145/268 
usemtl material5
f 23/43/269 53/107/270 72/152/271 70/147/272 
usemtl material5
f 53/109/273 48/92/274 71/149/275 72/153/276 
usemtl material5
f 48/94/277 65/137/278 2/3/279 71/150/280 
#end 70 faces
